<?xml version="1.0" encoding="utf-8"?>
<!-- Generator: Adobe Illustrator 27.5.0, SVG Export Plug-In . SVG Version: 6.00 Build 0)  -->
<svg version="1.1" id="Calque_1" xmlns="http://www.w3.org/2000/svg" xmlns:xlink="http://www.w3.org/1999/xlink" x="0px" y="0px"
	 viewBox="0 0 36 36" style="enable-background:new 0 0 36 36;" xml:space="preserve">
<style type="text/css">
	.st0{fill:#FFFFFF;}
	.st1{fill:#231F20;stroke:#231F20;stroke-width:0.2;stroke-miterlimit:10;}
	.st2{fill:none;stroke:#231F20;stroke-miterlimit:10;}
	.st3{fill:none;stroke:#231F20;stroke-width:0.25;stroke-miterlimit:10;}
	.st4{fill:none;stroke:#231F20;stroke-width:0.5;stroke-miterlimit:10;}
	.st5{fill:#231F20;}
</style>
<path class="st0" d="M33.3,36H2.7C1.2,36,0,34.8,0,33.3V2.7C0,1.2,1.2,0,2.7,0h30.5C34.8,0,36,1.2,36,2.7v30.5
	C36,34.8,34.8,36,33.3,36z"/>
<path class="st1" d="M14.3,21.5l-0.5-0.6c0,0-0.6,0.8-1.1,0.5s-0.3-1-0.3-1s-1.9,0.6-2.4,0s0.4-1.3,0.4-1.3s-6.1-1.4-3-9.4
	c0,0-1.6,0.2-1.6-0.5s1.6-0.4,1.6-0.4s-0.6-0.5-0.4-1s1.1,0,1.4,0.4c0,0-0.1-5.2,4.4-4.8c0,0,0.8,0.2,0.4,1.9c0,0,4.7-3.8,6.4-1.1
	c0,0,0.4,0.4-1,1.3c0,0,8.5,0.2,5.9,5.7c0,0-2.6,3-7.1,0.8c0,0,0,1.4-2,1.3l0,0.4c0,0,1.9,2.5-0.5,3.3c0,0-1.3-0.9-2,0.3
	c0,0-0.3,1.1,0.7,1.6l0.1,1.5l0.1,0.7"/>
<path class="st2" d="M0,31.1c0,0,6.1-3.8,14.3-4.3v-5.4c0,0,3,3.3,6.2,2.8c0,0,7.8-0.7,3-12.3"/>
<path class="st2" d="M36,32.4c0,0-7.5-4.8-15.4-5.4l-0.1-2.7"/>
<path class="st2" d="M14.3,26.8c0,0,0.1,1.9,2.1,2.4h2.1c0,0,1.5,0,2.1-2.2"/>
<path class="st3" d="M19,18.9c0,0-0.1,0.3,0,0.7c0,0.2,0.1,0.4,0.2,0.5"/>
<path class="st3" d="M22.2,19.2c0,0-1.9,0.9-3.2,0.4"/>
<path class="st3" d="M20.6,18.3c0,0,0.5,0.1,1.2-0.8"/>
<path class="st4" d="M16.9,15c0,0,0.8-0.8,1.9-0.4"/>
<path class="st4" d="M21.2,13.9c0,0,0.6-0.9,1.9-0.5"/>
<ellipse class="st5" cx="18.2" cy="16.2" rx="0.4" ry="0.6"/>
<ellipse class="st5" cx="22.2" cy="15.4" rx="0.4" ry="0.6"/>
</svg>
